<?xml version="1.0" encoding="utf-8"?>
<!-- Generator: Adobe Illustrator 26.5.0, SVG Export Plug-In . SVG Version: 6.00 Build 0)  -->
<svg version="1.1"
	 id="svg2" xmlns:svg="http://www.w3.org/2000/svg" xmlns:rdf="http://www.w3.org/1999/02/22-rdf-syntax-ns#" xmlns:dc="http://purl.org/dc/elements/1.1/" xmlns:cc="http://creativecommons.org/ns#"
	 xmlns="http://www.w3.org/2000/svg" xmlns:xlink="http://www.w3.org/1999/xlink" x="0px" y="0px" viewBox="0 0 329.3 141.3"
	 style="enable-background:new 0 0 329.3 141.3;" xml:space="preserve">
<style type="text/css">
	.st0{clip-path:url(#SVGID_00000119799462635588627260000007958379772946168761_);}
	.st1{fill:#D91920;}
	.st2{fill:url(#path68_00000041988743800597990810000016254417029844863888_);}
	.st3{fill:url(#path76_00000143607031066280040230000017315217154263641785_);}
	.st4{fill:url(#path84_00000024003857405853136110000012992432624823958439_);}
	.st5{fill:url(#path92_00000041254941974542992160000003750031340748153228_);}
</style>
<g id="g10" transform="matrix(1.3333333,0,0,-1.3333333,0,141.33333)">
	<g id="g12" transform="translate(-6,-25)">
		<g id="g14">
		</g>
		<g id="g106">
			<g>
				<defs>
					<rect id="SVGID_1_" x="-42.5" y="-23.6" width="340.2" height="189"/>
				</defs>
				<clipPath id="SVGID_00000046333623373552281490000017906919647001978002_">
					<use xlink:href="#SVGID_1_"  style="overflow:visible;"/>
				</clipPath>
				<g id="g104" style="clip-path:url(#SVGID_00000046333623373552281490000017906919647001978002_);">
					<g id="g102">
						<path id="path60" class="st1" d="M251.5,41C216,63,174.2,75.7,129.3,75.7S42.7,63,7.1,41c36.4,19.4,78,30.5,122.2,30.5
							S215.1,60.5,251.5,41"/>
						<path id="path62" class="st1" d="M129.3,72.5c30.9,0,61.6-5.5,90.5-16.1c-28.5,12.1-59.2,18.4-90.5,18.4
							c-31.3,0-62-6.3-90.5-18.4C67.7,67,98.4,72.5,129.3,72.5 M251.1,40.2C213.8,60,171.8,70.5,129.3,70.5
							C86.9,70.5,44.8,60,7.6,40.2l-1,1.7c36.8,22.8,79.2,34.8,122.7,34.8c43.5,0,85.9-12,122.7-34.8L251.1,40.2z"/>
						<g id="g74">
							<g id="g72">
								<g id="g70">
									
										<linearGradient id="path68_00000169529197040316211620000008363620274461095305_" gradientUnits="userSpaceOnUse" x1="-4.944" y1="-24.1514" x2="-3.944" y2="-24.1514" gradientTransform="matrix(0 106.4254 106.4254 0 2643.5076 554.9079)">
										<stop  offset="0" style="stop-color:#DBE7F0"/>
										<stop  offset="1" style="stop-color:#05507D"/>
									</linearGradient>
									<path id="path68" style="fill:url(#path68_00000169529197040316211620000008363620274461095305_);" d="M88.6,108.6
										L73.2,66.6l-15.5,41.9H46.4V28.7H59V78l10.6-32.2h7l10.9,32.7V28.7H100v79.8H88.6z"/>
								</g>
							</g>
						</g>
						<g id="g82">
							<g id="g80">
								<g id="g78">
									
										<linearGradient id="path76_00000028305431183800385170000006976073761578339213_" gradientUnits="userSpaceOnUse" x1="-4.936" y1="-24.1531" x2="-3.936" y2="-24.1531" gradientTransform="matrix(0 108.3682 108.3682 0 2774.7568 562.8657)">
										<stop  offset="0" style="stop-color:#DBE7F0"/>
										<stop  offset="1" style="stop-color:#05507D"/>
									</linearGradient>
									<path id="path76" style="fill:url(#path76_00000028305431183800385170000006976073761578339213_);" d="M143.8,104.4
										c-4.4-3.9-6.5-9.8-6.5-16.9c0-12.3,3-16.7,11.1-20.1l9.5-3.9c6.2-2.5,7.5-4.6,7.5-13.1c0-4.3-0.4-7-2.1-8.9
										c-1.2-1.5-3.1-2.2-6.1-2.2c-2.8,0-4.7,0.9-5.8,2.1c-1.8,2-2.2,4.7-2.2,9h-12.6c0-8.4,1.3-13.3,5.2-17.2
										c3.4-3.4,8.5-5.3,15.5-5.3c7.1,0,12.3,2.1,15.6,5.3c4,3.9,5.2,9.4,5.2,17.6c0,13.4-2.6,18.5-12.1,22.4l-9.4,3.8
										c-5.6,2.2-6.6,4.3-6.6,10.8c0,3.5,0.7,6.2,2.1,7.8c1.2,1.3,2.8,2.2,5.4,2.2c2.7,0,4.5-0.9,5.6-2.4c1.7-2.1,1.9-4.9,1.9-8.5
										h12.6c0,7.6-1.5,13.3-5.6,17.4c-3.3,3.1-8,4.8-14.4,4.8C151.8,109.2,147.3,107.4,143.8,104.4"/>
								</g>
							</g>
						</g>
						<g id="g90">
							<g id="g88">
								<g id="g86">
									
										<linearGradient id="path84_00000085214178848793031690000015581149481666111418_" gradientUnits="userSpaceOnUse" x1="-4.944" y1="-24.1514" x2="-3.944" y2="-24.1514" gradientTransform="matrix(0 106.4254 106.4254 0 2774.5027 554.9079)">
										<stop  offset="0" style="stop-color:#DBE7F0"/>
										<stop  offset="1" style="stop-color:#05507D"/>
									</linearGradient>
									<path id="path84" style="fill:url(#path84_00000085214178848793031690000015581149481666111418_);" d="M184.5,108.6V97.2
										h13.3V28.7h12.6v68.5h13.5v11.3H184.5z"/>
								</g>
							</g>
						</g>
						<g id="g98">
							<g id="g96">
								<g id="g94">
									
										<linearGradient id="path92_00000102516072328347710050000017090367680653479863_" gradientUnits="userSpaceOnUse" x1="-4.915" y1="-24.1578" x2="-3.915" y2="-24.1578" gradientTransform="matrix(0 113.8481 113.8481 0 2870.033 584.7758)">
										<stop  offset="0" style="stop-color:#DBE7F0"/>
										<stop  offset="1" style="stop-color:#05507D"/>
									</linearGradient>
									<path id="path92" style="fill:url(#path92_00000102516072328347710050000017090367680653479863_);" d="M113,84.6
										c1.8,1.6,4.1,2.5,6.7,2.5c2.6,0,4.9-1,6.7-2.5c-1.3,8.9-3.5,17.6-6.7,26C116.5,102.2,114.3,93.5,113,84.6 M112.3,78.8
										c-0.3-3.6-0.5-7.2-0.5-10.9c0-10,1.3-19.8,3.7-29.3c-4.3-1.7-7.4-5.9-7.4-10.8c0-0.9,0.1-1.8,0.3-2.7
										c1,4.2,4.2,7.5,8.4,8.6c0.9-2.9,1.8-5.7,2.9-8.6c1.1,2.8,2,5.7,2.9,8.6c4.2-1.1,7.4-4.4,8.4-8.6c0.2,0.9,0.3,1.7,0.3,2.7
										c0,4.9-3.1,9.1-7.4,10.8c2.4,9.5,3.6,19.3,3.6,29.3c0,3.6-0.2,7.2-0.5,10.7c-0.8,3.4-3.8,5.9-7.4,5.9
										C116.2,84.6,113.2,82.1,112.3,78.8"/>
								</g>
							</g>
						</g>
						<path id="path100" class="st1" d="M117.3,123.3h-7.9l6.4-4.6l-2.4-7.5l6.4,4.6l6.4-4.6l-2.4,7.5l6.4,4.6h-7.9l-2.4,7.5
							L117.3,123.3z"/>
					</g>
				</g>
			</g>
		</g>
	</g>
</g>
</svg>
